<svg width="15" height="15" viewBox="0 0 15 15" fill="none" xmlns="http://www.w3.org/2000/svg">
<path fill-rule="evenodd" clip-rule="evenodd" d="M7.5 0C3.35778 0 0 3.35678 0 7.5C0 11.6432 3.35778 15 7.5 15C11.6422 15 15 11.6432 15 7.5C15 3.35678 11.6422 0 7.5 0Z" fill="#003D74"/>
<path fill-rule="evenodd" clip-rule="evenodd" d="M9.47999 6.81913H8.17897V5.76414C8.17897 5.62028 8.23637 5.37091 8.46596 5.37091L9.2217 5.38051L9.193 3.95149L7.69109 3.94189C7.17451 3.94189 6.53356 4.60364 6.53356 5.275L6.52399 6.79996L5.51953 6.81913V8.23858L6.54313 8.24815V11.5282L8.18854 11.5378L8.17897 8.22898L9.193 8.21938L9.47999 6.81913Z" fill="white"/>
</svg>
