<svg width="23" height="18" viewBox="0 0 23 18" fill="none" xmlns="http://www.w3.org/2000/svg">
<path d="M20.6468 6.65911L16.8418 1.25998L18.6536 0L22.4575 5.39913L20.6468 6.65911Z" fill="#7A9CA7"/>
<path d="M18.5639 9.44933L16.6625 6.74812L7.60665 13.0491L9.50802 15.7481L7.6973 17.0092L2.62549 9.80964L4.43622 8.54966L6.33759 11.2498L15.3934 4.94877L13.4921 2.24866L15.3028 0.988678L20.3746 8.18715L18.5639 9.44823V9.44933Z" fill="#7A9CA7"/>
<path d="M21.1893 3.59854L23.0001 2.33856L21.7321 0.539215L19.9214 1.7992L21.1893 3.59854Z" fill="#7A9CA7"/>
<path d="M6.15866 16.7399L2.3537 11.3408L0.542969 12.6008L4.34682 17.9999L6.15866 16.7399Z" fill="#7A9CA7"/>
<path d="M3.07868 16.2009L1.26795 17.4608L0 15.6615L1.81073 14.4015L3.07868 16.2009Z" fill="#7A9CA7"/>
</svg>
