<svg width="15" height="15" viewBox="0 0 15 15" fill="none" xmlns="http://www.w3.org/2000/svg">
<path d="M7.5 15C11.6421 15 15 11.6422 15 7.50004C15 3.3579 11.6421 0 7.5 0C3.35786 0 0 3.3579 0 7.50004C0 11.6422 3.35786 15 7.5 15Z" fill="#003D74"/>
<path fill-rule="evenodd" clip-rule="evenodd" d="M9.93923 4.25818H5.06997C4.62035 4.25818 4.25684 4.62261 4.25684 5.07337V9.94552C4.25684 10.3963 4.62035 10.7607 5.06997 10.7607H9.93923C10.3888 10.7607 10.7524 10.3963 10.7524 9.94552V5.07337C10.7524 4.62261 10.3888 4.25818 9.93923 4.25818ZM8.72431 5.47617C8.72431 5.25558 8.90607 5.07337 9.1261 5.07337H9.52788C9.74791 5.07337 9.92967 5.25558 9.92967 5.47617V5.87903C9.92967 6.09962 9.74791 6.28182 9.52788 6.28182H9.1261C8.90607 6.28182 8.72431 6.09962 8.72431 5.87903V5.47617ZM7.49982 6.69422C8.24599 6.69422 8.31296 7.50942 8.31296 7.50942C8.31296 7.50942 8.34166 8.32467 7.49982 8.32467C6.66755 8.32467 6.68668 7.50942 6.68668 7.50942C6.68668 7.50942 6.75365 6.69422 7.49982 6.69422ZM10.0062 9.53312C10.0062 9.75371 9.74791 10.0127 9.52788 10.0127H5.47176C5.25173 10.0127 5.00301 9.76325 5.00301 9.54266V7.50942C5.00301 7.28883 5.2613 7.04908 5.48132 7.04908H5.94051C5.90224 7.18335 5.88311 7.37515 5.88311 7.50942C5.88311 8.41095 6.61015 9.13026 7.50938 9.13026C8.40862 9.13026 9.13566 8.40136 9.13566 7.50942C9.13566 7.36555 9.10696 7.18335 9.07827 7.04908H9.53745C9.75747 7.04908 10.0062 7.27929 10.0062 7.49987V9.53312Z" fill="white"/>
</svg>
