<svg width="22" height="16" viewBox="0 0 22 16" fill="none" xmlns="http://www.w3.org/2000/svg">
<path d="M7.16327 0L6.4711 2.68824H0V16H22V2.68824H15.8305L15.1383 0H7.16327ZM11.0562 2.68309C14.4735 2.68309 17.2428 5.35784 17.2428 8.65798C17.2428 11.9583 14.4732 14.6329 11.0562 14.6329C7.63893 14.6329 4.86955 11.9581 4.86955 8.65798C4.86955 5.3577 7.63911 2.68309 11.0562 2.68309ZM18.311 3.98382H21.4299V5.73278H18.311V3.98382ZM11.0562 4.44764C8.64835 4.44764 6.69658 6.33278 6.69658 8.65804C6.69658 10.9835 8.64853 12.8684 11.0562 12.8684C13.464 12.8684 15.4158 10.9833 15.4158 8.65804C15.4158 6.3326 13.4639 4.44764 11.0562 4.44764Z" fill="#7A9CA7"/>
</svg>
