<svg width="15" height="15" viewBox="0 0 15 15" fill="none" xmlns="http://www.w3.org/2000/svg">
<path fill-rule="evenodd" clip-rule="evenodd" d="M7.5 0C3.35778 0 0 3.35679 0 7.50001C0 11.6432 3.35778 15 7.5 15C11.6422 15 15 11.6432 15 7.50001C15 3.35679 11.6422 0 7.5 0Z" fill="#003D74"/>
<path fill-rule="evenodd" clip-rule="evenodd" d="M10.121 6.33934C10.408 6.1667 10.6376 5.88857 10.7428 5.56249C10.475 5.72553 10.1689 5.84062 9.85317 5.89817C9.59487 5.62963 9.23135 5.457 8.82957 5.457C8.0547 5.457 7.42332 6.08039 7.42332 6.85725C7.42332 6.96275 7.43288 7.07785 7.46158 7.17376C6.29449 7.11622 5.26133 6.55993 4.57255 5.71594C4.44819 5.92694 4.38123 6.16672 4.38123 6.41608C4.38123 6.90521 4.62995 7.3272 5.00304 7.57656C4.77345 7.56697 4.55342 7.50943 4.37166 7.40393V7.4231C4.37166 8.10405 4.85954 8.6699 5.50049 8.79458C5.38569 8.82335 5.26133 8.84255 5.1274 8.84255C5.0413 8.84255 4.94564 8.83296 4.85954 8.81378C5.0413 9.37005 5.55789 9.77284 6.17013 9.78243C5.69181 10.1565 5.07957 10.3771 4.42906 10.3771C4.31426 10.3771 4.19947 10.3675 4.09424 10.3579C4.71605 10.7511 5.45266 10.9813 6.24666 10.9813C8.82957 10.9813 10.2454 8.85213 10.2454 7.00111C10.2454 6.94356 10.2454 6.87642 10.2454 6.81888C10.5228 6.61747 10.762 6.3777 10.9437 6.09957C10.6759 6.22425 10.3984 6.30097 10.121 6.33934Z" fill="white"/>
</svg>
