<svg width="15" height="15" viewBox="0 0 15 15" fill="none" xmlns="http://www.w3.org/2000/svg">
<path d="M7.5 15C11.6421 15 15 11.6421 15 7.5C15 3.35787 11.6421 0 7.5 0C3.35786 0 0 3.35787 0 7.5C0 11.6421 3.35786 15 7.5 15Z" fill="#003D74"/>
<path fill-rule="evenodd" clip-rule="evenodd" d="M8.68612 6.57939C8.76265 6.57939 8.83917 6.5602 8.91571 6.51224C8.99224 6.46429 9.06877 6.39719 9.1453 6.31088V6.55065H9.54708V4.40226H9.1453V6.03271C9.10703 6.08066 9.06877 6.11902 9.02094 6.14779C8.9731 6.17656 8.93484 6.19579 8.90614 6.19579C8.86788 6.19579 8.83917 6.18616 8.82961 6.15739C8.81048 6.13821 8.80091 6.09985 8.80091 6.04231V4.39272H8.40869V6.19579C8.40869 6.32047 8.42782 6.41637 8.47566 6.4835C8.53305 6.55064 8.60002 6.57939 8.68612 6.57939ZM6.90678 6.00396C6.90678 6.18619 6.96417 6.33001 7.0694 6.4451C7.17463 6.5506 7.31813 6.60819 7.49032 6.60819C7.67209 6.60819 7.81558 6.55061 7.92081 6.4547C8.02604 6.3492 8.07387 6.20533 8.07387 6.02311V4.9106C8.07387 4.74756 8.01647 4.6133 7.91124 4.5078C7.80601 4.40231 7.67208 4.35432 7.49989 4.35432C7.31813 4.35432 7.17463 4.4023 7.0694 4.4982C6.96417 4.59411 6.90678 4.72837 6.90678 4.901V6.00396ZM7.31813 4.87226C7.31813 4.8243 7.33726 4.78595 7.36596 4.75717C7.39466 4.7284 7.43292 4.70917 7.48076 4.70917C7.53815 4.70917 7.57642 4.7284 7.60512 4.75717C7.63382 4.78595 7.65295 4.8243 7.65295 4.87226V6.04231C7.65295 6.09985 7.63382 6.14782 7.60512 6.17659C7.57642 6.20536 7.52859 6.22453 7.48076 6.22453C7.42336 6.22453 7.38509 6.20536 7.35639 6.17659C7.32769 6.14782 7.31813 6.09985 7.31813 6.04231V4.87226ZM5.95014 6.55065H6.39976V5.3422L6.92591 3.63501H6.46673L6.1893 4.80512H6.1606L5.86405 3.63501H5.41443L5.95014 5.39974V6.55065ZM10.762 7.91252C10.762 7.39462 10.3315 6.97264 9.80537 6.97264C9.0592 6.94387 8.28433 6.92464 7.49989 6.92464C6.71545 6.92464 5.95014 6.93428 5.1944 6.97264C4.66826 6.97264 4.23777 7.39462 4.23777 7.91252C4.20907 8.32492 4.18994 8.73731 4.18994 9.14971C4.18994 9.56211 4.19951 9.97456 4.23777 10.387C4.23777 10.9049 4.66826 11.3268 5.1944 11.3268C5.94058 11.3556 6.71545 11.3748 7.49989 11.3748C8.28433 11.3748 9.04963 11.3652 9.80537 11.3268C10.3315 11.3268 10.762 10.9049 10.762 10.387C10.7907 9.97456 10.8098 9.56211 10.8098 9.14971C10.8003 8.73731 10.7907 8.32492 10.762 7.91252ZM5.63446 10.5404H5.18484V8.04681H4.71609V7.62481H6.10321V8.04681H5.63446V10.5404ZM7.23203 10.5404H6.83025V10.3006C6.75372 10.3869 6.67719 10.4541 6.60065 10.502C6.52412 10.55 6.44759 10.5692 6.37106 10.5692C6.2754 10.5692 6.20844 10.5404 6.1606 10.4732C6.11277 10.4061 6.09364 10.3102 6.09364 10.1855V8.38246H6.49543V10.0321C6.49543 10.0801 6.50499 10.1184 6.52412 10.1472C6.54326 10.1664 6.57196 10.1855 6.61022 10.1855C6.63892 10.1855 6.67719 10.1664 6.72502 10.1376C6.77285 10.1088 6.81111 10.0705 6.84938 10.0225V8.39206H7.25116V10.5404H7.23203ZM8.77221 10.0896C8.77221 10.2431 8.74351 10.3582 8.67655 10.4445C8.60958 10.5212 8.52349 10.5692 8.40869 10.5692C8.33216 10.5692 8.2652 10.55 8.19823 10.5212C8.14083 10.4924 8.08343 10.4445 8.02604 10.3774V10.5404H7.62425V7.62481H8.02604V8.56469C8.08343 8.49755 8.14083 8.44962 8.19823 8.41126C8.25563 8.3729 8.32259 8.36326 8.37999 8.36326C8.50435 8.36326 8.60002 8.41123 8.66698 8.49754C8.73395 8.59345 8.76264 8.72771 8.76264 8.90034V10.0896H8.77221ZM10.255 9.51416H9.48969V9.91696C9.48969 10.0321 9.49925 10.1088 9.52795 10.1567C9.55665 10.2047 9.59491 10.2239 9.66188 10.2239C9.72884 10.2239 9.77668 10.2047 9.80537 10.1663C9.83407 10.128 9.84364 10.0512 9.84364 9.91696V9.76353H10.255V9.92656C10.255 10.1471 10.2072 10.3102 10.1019 10.4253C10.0063 10.5404 9.85321 10.5883 9.65231 10.5883C9.47055 10.5883 9.33663 10.5308 9.2314 10.4061C9.12617 10.291 9.07833 10.128 9.07833 9.91696V8.94834C9.07833 8.76612 9.13573 8.61262 9.25053 8.48794C9.36532 8.37285 9.50882 8.31532 9.69058 8.31532C9.87234 8.31532 10.0158 8.37285 10.1115 8.47834C10.2072 8.58384 10.255 8.74693 10.255 8.94834V9.51416ZM9.67145 8.70857C9.60448 8.70857 9.56622 8.72775 9.53752 8.76611C9.50882 8.80448 9.49925 8.87157 9.49925 8.95788V9.17851H9.85321V8.95788C9.85321 8.87157 9.84364 8.80448 9.81494 8.76611C9.77667 8.72775 9.72884 8.70857 9.67145 8.70857ZM8.19823 8.69897C8.16953 8.69897 8.14083 8.70852 8.11213 8.71811C8.08343 8.7277 8.05474 8.75648 8.02604 8.78526V10.128C8.05474 10.1664 8.093 10.1856 8.1217 10.2047C8.1504 10.2239 8.18867 10.2239 8.21736 10.2239C8.2652 10.2239 8.30346 10.2047 8.32259 10.1759C8.34173 10.1472 8.36086 10.0992 8.36086 10.0321V8.91954C8.36086 8.84281 8.35129 8.79488 8.32259 8.75651C8.2939 8.71815 8.25563 8.69897 8.19823 8.69897Z" fill="white"/>
</svg>
